# xmcd
#
# Track frame offsets:
# 150
# 19578
# 29693
# 57755
# 76228
# 97178
# 117860
# 128610
# 141168
# 161858
# 190820
# 209513
# 232740
#
# Disc length: 3360 seconds
#
#
# Revision: 0
# Processed by: cddbd v1.5PL3 Copyright (c) Steve Scherf et al.
# Submitted via: FreeRIP 2.51 
#
DISCID=ac0d1e0d
DTITLE=John Lee Hooker - Jonn Lee - Hooker - Boom Boom Boom
DYEAR=1992
DGENRE=Blues
TTITLE0=Boom Boom
TTITLE1=I'm Bad Like Jesse James
TTITLE2=Same Old Blues AgIN
TTITLE3=Suga Mamma
TTITLE4=Trick Bag (Shoppin' For My Tomb Stone)
TTITLE5=Boogie At Russian Hill
TTITLE6=Hittin' The Bottle Again
TTITLE7=Bottle Up And Go
TTITLE8=Thought I Heard
TTITLE9=I AIn'nt Gonna Suffer No More
TTITLE10=Home Work
TTITLE11=Driftin' Blues
TTITLE12=Boom Boom (Live)
EXTD=Lick Me Teeth
EXTT0=
EXTT1=
EXTT2=
EXTT3=
EXTT4=
EXTT5=
EXTT6=
EXTT7=
EXTT8=
EXTT9=
EXTT10=
EXTT11=
EXTT12=
PLAYORDER=
